<?xml version="1.0" encoding="UTF-8" standalone="no"?>
<svg width="274px" height="105px" viewBox="0 0 274 105" version="1.1" xmlns="http://www.w3.org/2000/svg" xmlns:xlink="http://www.w3.org/1999/xlink" xmlns:sketch="http://www.bohemiancoding.com/sketch/ns">
    <!-- Generator: Sketch 3.2.2 (9983) - http://www.bohemiancoding.com/sketch -->
    <title>Main Cloud</title>
    <desc>Created with Sketch.</desc>
    <defs></defs>
    <g id="Page-1" stroke="none" stroke-width="1" fill="none" fill-rule="evenodd" sketch:type="MSPage">
        <g id="Desktop" sketch:type="MSArtboardGroup" transform="translate(-375.000000, -154.000000)" fill="#FFFFFF">
            <path d="M483.671426,187.151652 C488.652229,168.479951 506.803921,154.639763 528.433661,154.639763 C549.541204,154.639763 567.336611,167.819744 572.812254,185.807882 C575.122566,184.854115 577.653317,184.328089 580.306535,184.328089 C589.599175,184.328089 597.389529,190.780765 599.468414,199.463438 L599.468414,199.463438 C601.010413,199.13528 602.609686,198.962634 604.249154,198.962634 C616.910442,198.962634 627.174443,209.259547 627.174443,221.961434 C627.174443,223.115334 627.089737,224.249386 626.926222,225.357674 L626.92622,225.357674 L632.261289,225.357674 C641.29872,225.357674 648.625002,232.677733 648.624999,241.711919 C648.624996,250.74412 641.309116,258.066165 632.261278,258.066165 L392.788367,258.066165 C384.330563,258.066165 377.37145,251.654956 376.513579,243.427541 L375.375,243.427541 L375.375,230.071813 C375.375,222.695648 381.350935,216.716085 388.73505,216.716085 L393.633354,216.716085 C393.633354,202.911267 404.788601,191.72025 418.549295,191.72025 C424.305608,191.72025 429.606,193.678543 433.824623,196.967276 C437.086525,184.865693 448.090142,175.963834 461.16233,175.963834 C470.338937,175.963834 478.496159,180.35064 483.671426,187.151652 L483.671426,187.151652 Z M486.942669,216.22953 C487.027884,216.392295 487.114176,216.554484 487.201536,216.716089 L487.201517,216.716085 L486.716296,216.716085 C486.793228,216.554736 486.868691,216.392545 486.942669,216.22953 L486.942669,216.22953 Z" id="Main-Cloud" sketch:type="MSShapeGroup"></path>
        </g>
    </g>
</svg>