<?xml version="1.0" encoding="UTF-8" standalone="no"?>
<svg width="91px" height="52px" viewBox="0 0 91 52" version="1.1" xmlns="http://www.w3.org/2000/svg" xmlns:xlink="http://www.w3.org/1999/xlink" xmlns:sketch="http://www.bohemiancoding.com/sketch/ns">
    <!-- Generator: Sketch 3.2.2 (9983) - http://www.bohemiancoding.com/sketch -->
    <title>Cloud Right</title>
    <desc>Created with Sketch.</desc>
    <defs></defs>
    <g id="Page-1" stroke="none" stroke-width="1" fill="none" fill-rule="evenodd" sketch:type="MSPage">
        <g id="Desktop" sketch:type="MSArtboardGroup" transform="translate(-933.000000, -258.000000)" fill="#FFFFFF">
            <path d="M993.541396,281.066158 C993.981287,270.213905 1002.89236,261.551336 1013.82073,261.551336 C1025.0301,261.551336 1034.11709,270.665099 1034.11709,281.907495 C1034.11709,282.134504 1034.11339,282.360645 1034.10603,282.585861 L1034.10603,282.585861 C1036.86803,280.071911 1040.53492,278.540051 1044.55855,278.540051 C1053.15129,278.540051 1060.11709,285.526373 1060.11709,294.144438 C1060.11709,297.742473 1058.90291,301.056085 1056.86308,303.695611 L1056.86308,303.695611 C1056.19448,307.144574 1053.15704,309.748826 1049.51846,309.748826 L943.788504,309.748826 C941.011815,309.748826 938.588426,308.231637 937.29743,305.984391 C934.805198,303.55965 933.256409,300.164975 933.256409,296.407495 C933.256409,289.039282 939.211978,283.066165 946.558545,283.066165 C948.926175,283.066165 951.149331,283.686547 953.075228,284.774074 L953.075228,284.774074 C952.506225,282.879187 952.200416,280.869924 952.200416,278.789024 C952.200416,267.344105 961.451099,258.066165 972.862395,258.066165 C984.273692,258.066165 993.524375,267.344105 993.524375,278.789024 C993.524375,279.558589 993.48255,280.318357 993.401055,281.066165 L993.541396,281.066165 Z" id="Cloud-Right" sketch:type="MSShapeGroup"></path>
        </g>
    </g>
</svg>