<?xml version="1.0" encoding="UTF-8" standalone="no"?>
<svg width="127px" height="53px" viewBox="0 0 127 53" version="1.1" xmlns="http://www.w3.org/2000/svg" xmlns:xlink="http://www.w3.org/1999/xlink" xmlns:sketch="http://www.bohemiancoding.com/sketch/ns">
    <!-- Generator: Sketch 3.2.2 (9983) - http://www.bohemiancoding.com/sketch -->
    <title>Cloud Right 2</title>
    <desc>Created with Sketch.</desc>
    <defs></defs>
    <g id="Page-1" stroke="none" stroke-width="1" fill="none" fill-rule="evenodd" sketch:type="MSPage">
        <g id="Desktop" sketch:type="MSArtboardGroup" transform="translate(-897.000000, -676.000000)" fill="#203A59">
            <path d="M957.424305,699.771077 C957.864197,688.918824 966.775266,680.256255 977.703642,680.256255 C988.913011,680.256255 998,689.370018 998,700.612415 C998,700.839424 997.996295,701.065565 997.988942,701.29078 L997.988942,701.29078 C1000.75094,698.77683 1004.41783,697.24497 1008.44145,697.24497 C1017.0342,697.24497 1024,704.231292 1024,712.849358 C1024,716.447392 1022.78582,719.761004 1020.74599,722.40053 L1020.74599,722.40053 C1020.07739,725.849493 1017.03995,728.453745 1013.40137,728.453745 L907.671414,728.453745 C904.894725,728.453745 902.471335,726.936556 901.180339,724.68931 C898.688107,722.264569 897.139318,718.869894 897.139318,715.112415 C897.139318,707.744201 903.094887,701.771084 910.441455,701.771084 C912.809084,701.771084 915.032241,702.391466 916.958138,703.478994 L916.958138,703.478994 C916.389134,701.584107 916.083325,699.574843 916.083325,697.493943 C916.083325,686.049024 925.334008,676.771084 936.745305,676.771084 C948.156601,676.771084 957.407285,686.049024 957.407285,697.493943 C957.407285,698.263508 957.365459,699.023276 957.283964,699.771084 L957.424305,699.771084 Z" id="Cloud-Right-2" sketch:type="MSShapeGroup"></path>
        </g>
    </g>
</svg>