<?xml version="1.0" encoding="UTF-8" standalone="no"?>
<svg width="100px" height="57px" viewBox="0 0 100 57" version="1.1" xmlns="http://www.w3.org/2000/svg" xmlns:xlink="http://www.w3.org/1999/xlink" xmlns:sketch="http://www.bohemiancoding.com/sketch/ns">
    <!-- Generator: Sketch 3.2.2 (9983) - http://www.bohemiancoding.com/sketch -->
    <title>Cloud Left 2</title>
    <desc>Created with Sketch.</desc>
    <defs></defs>
    <g id="Page-1" stroke="none" stroke-width="1" fill="none" fill-rule="evenodd" sketch:type="MSPage">
        <g id="Desktop" sketch:type="MSArtboardGroup" transform="translate(0.000000, -819.000000)" fill="#203A59">
            <path d="M-24.4775958,869.88899 C-26.6750508,867.198203 -27.9936238,863.757553 -27.9936238,860.008027 C-27.9936238,851.389962 -21.0278257,844.403639 -12.4350784,844.403639 C-6.66302416,844.403639 -1.62509613,847.556069 1.06046648,852.23792 L1.06046648,852.23792 C0.639662882,850.822777 0.4136609,849.323401 0.4136609,847.771084 C0.4136609,839.153019 7.37945891,832.166696 15.9722062,832.166696 C17.4673631,832.166696 18.9132612,832.37822 20.2817743,832.773057 L20.2817743,832.773057 C25.2529499,824.865814 34.0387338,819.61273 44.0478366,819.61273 C59.553579,819.61273 72.1234669,832.219655 72.1234669,847.771084 C72.1234669,848.348196 72.1061564,848.921252 72.0720276,849.48976 C74.9171827,846.364391 79.0127458,844.403639 83.5649216,844.403639 C92.1576689,844.403639 99.1234669,851.389962 99.1234669,860.008027 C99.1234669,863.606061 97.9092901,866.919674 95.8694573,869.559199 C95.2008599,873.008162 92.1634155,875.612415 88.5248412,875.612415 L48.2747418,875.612415 C46.8960885,875.821201 45.4845654,875.929437 44.0478366,875.929437 C42.6111078,875.929437 41.1995847,875.821201 39.8209313,875.612415 L-17.2051193,875.612415 C-20.7295621,875.612415 -23.6847992,873.16805 -24.4775958,869.88899 L-24.4775958,869.88899 Z" id="Cloud-Left-2" sketch:type="MSShapeGroup"></path>
        </g>
    </g>
</svg>