<?xml version="1.0" encoding="UTF-8" standalone="no"?>
<svg width="100px" height="50px" viewBox="0 0 100 50" version="1.1" xmlns="http://www.w3.org/2000/svg" xmlns:xlink="http://www.w3.org/1999/xlink" xmlns:sketch="http://www.bohemiancoding.com/sketch/ns">
    <!-- Generator: Sketch 3.2.2 (9983) - http://www.bohemiancoding.com/sketch -->
    <title>Cloud Left</title>
    <desc>Created with Sketch.</desc>
    <defs></defs>
    <g id="Page-1" stroke="none" stroke-width="1" fill="none" fill-rule="evenodd" sketch:type="MSPage">
        <g id="Desktop" sketch:type="MSArtboardGroup" transform="translate(0.000000, -209.000000)" fill="#FFFFFF">
            <path d="M31.5313553,230.383503 C31.530953,230.330661 31.5307516,230.277771 31.5307516,230.224834 C31.5307516,218.982437 40.6177404,209.868674 51.8271092,209.868674 C63.036478,209.868674 72.1234669,218.982437 72.1234669,230.224834 C72.1234669,230.811899 72.0986884,231.39316 72.0501231,231.967622 L72.0501231,231.967622 C74.896141,228.828229 79.0010503,226.857389 83.5649216,226.857389 C92.1576689,226.857389 99.1234669,233.843712 99.1234669,242.461777 C99.1234669,246.059811 97.9092901,249.373424 95.8694573,252.012949 L95.8694573,252.012949 C95.2008599,255.461912 92.1634155,258.066165 88.5248412,258.066165 L-17.2051193,258.066165 C-20.7295621,258.066165 -23.6847992,255.6218 -24.4775958,252.34274 C-26.6750508,249.651953 -27.9936238,246.211304 -27.9936238,242.461777 C-27.9936238,233.843712 -21.0278257,226.857389 -12.4350784,226.857389 C-6.66302416,226.857389 -1.62509613,230.009819 1.06046648,234.69167 L1.06046648,234.69167 C0.639662882,233.276527 0.4136609,231.777151 0.4136609,230.224834 C0.4136609,221.606769 7.37945891,214.620446 15.9722062,214.620446 C24.5649535,214.620446 31.5307516,221.606769 31.5307516,230.224834 C31.5307516,230.277786 31.5304886,230.330676 31.5299639,230.383503 L31.5313534,230.383503 Z M68.0189858,243.095823 C68.0113352,242.903819 68.0071438,242.710922 68.0064723,242.517194 C67.8584501,242.712868 67.70698,242.905775 67.5521527,243.095823 L68.0189858,243.095823 L68.0189858,243.095823 Z" id="Cloud-Left" sketch:type="MSShapeGroup"></path>
        </g>
    </g>
</svg>