<?xml version="1.0" encoding="UTF-8" standalone="no"?>
<svg width="42px" height="17px" viewBox="0 0 42 17" version="1.1" xmlns="http://www.w3.org/2000/svg" xmlns:xlink="http://www.w3.org/1999/xlink" xmlns:sketch="http://www.bohemiancoding.com/sketch/ns">
    <!-- Generator: Sketch 3.2.2 (9983) - http://www.bohemiancoding.com/sketch -->
    <title>Main Cloud 2</title>
    <desc>Created with Sketch.</desc>
    <defs></defs>
    <g id="Page-1" stroke="none" stroke-width="1" fill="none" fill-rule="evenodd" sketch:type="MSPage">
        <g id="Desktop" sketch:type="MSArtboardGroup" transform="translate(-31.000000, -18.000000)" fill="#FFFFFF">
            <path d="M47.7212044,23.9089425 C48.4845021,21.0475427 51.2662116,18.9265625 54.5809247,18.9265625 C57.8156122,18.9265625 60.5427217,20.9463674 61.3818527,23.7030126 C61.7359033,23.5568497 62.1237356,23.4762372 62.5303358,23.4762372 C63.9544139,23.4762372 65.1482696,24.4650967 65.4668543,25.7956984 L65.4668543,25.7956984 C65.7031625,25.7454088 65.9482479,25.7189511 66.199493,25.7189511 C68.1398092,25.7189511 69.7127463,27.2969319 69.7127463,29.2434699 C69.7127463,29.4203027 69.6997653,29.5940939 69.6747069,29.7639367 L69.6747075,29.7639367 L70.4845344,29.7639367 C71.8737881,29.7639367 73.0000003,30.8763749 72.9999998,32.2701912 C72.9999994,33.6543573 71.8842464,34.7764456 70.4845328,34.7764456 L33.8013232,34.7764456 C32.5006325,34.7764456 31.4305148,33.8013192 31.2993638,32.5331067 L31.125,32.5331067 L31.125,30.4863688 C31.125,29.3559867 32.0407997,28.439631 33.1724002,28.439631 L33.9230552,28.439631 C33.9230552,26.324071 35.6325738,24.6090708 37.7413718,24.6090708 C38.623515,24.6090708 39.4357891,24.9091752 40.0822843,25.4131667 C40.5821642,23.5586239 42.2684459,22.1944324 44.2717317,22.1944324 C45.6780278,22.1944324 46.9281054,22.8667014 47.7212044,23.9089425 L47.7212044,23.9089425 Z M48.2225155,28.3650674 C48.2355747,28.3900109 48.2487988,28.414866 48.2621864,28.4396316 L48.2621835,28.439631 L48.1878245,28.439631 C48.199614,28.4149046 48.2111786,28.3900491 48.2225155,28.3650674 L48.2225155,28.3650674 Z" id="Main-Cloud-2" sketch:type="MSShapeGroup"></path>
        </g>
    </g>
</svg>